HIERARCHY
ROOT Hips
{
	OFFSET 0.00000 0.00000 0.00000
	CHANNELS 6 Xposition Yposition Zposition Zrotation Yrotation Xrotation 
	JOINT LHipJoint
	{
		OFFSET 0 0 0
		CHANNELS 3 Zrotation Yrotation Xrotation
		JOINT LeftUpLeg
		{
			OFFSET 1.75344 -1.53157 0.77399
			CHANNELS 3 Zrotation Yrotation Xrotation
			JOINT LeftLeg
			{
				OFFSET 2.25415 -6.19323 0.00000
				CHANNELS 3 Zrotation Yrotation Xrotation
				JOINT LeftFoot
				{
					OFFSET 2.30342 -6.32861 0.00000
					CHANNELS 3 Zrotation Yrotation Xrotation
					JOINT LeftToeBase
					{
						OFFSET 0.10958 -0.30108 1.49206
						CHANNELS 3 Zrotation Yrotation Xrotation
						End Site
						{
							OFFSET 0.00000 -0.00000 0.77783
						}
					}
				}
			}
		}
	}
	JOINT RHipJoint
	{
		OFFSET 0 0 0
		CHANNELS 3 Zrotation Yrotation Xrotation
		JOINT RightUpLeg
		{
			OFFSET -1.81912 -1.53156 0.77399
			CHANNELS 3 Zrotation Yrotation Xrotation
			JOINT RightLeg
			{
				OFFSET -2.22882 -6.12365 0.00000
				CHANNELS 3 Zrotation Yrotation Xrotation
				JOINT RightFoot
				{
					OFFSET -2.21943 -6.09785 0.00000
					CHANNELS 3 Zrotation Yrotation Xrotation
					JOINT RightToeBase
					{
						OFFSET -0.18931 -0.52012 1.59379
						CHANNELS 3 Zrotation Yrotation Xrotation
						End Site
						{
							OFFSET -0.00000 -0.00000 0.84686
						}
					}
				}
			}
		}
	}
	JOINT LowerBack
	{
		OFFSET 0 0 0
		CHANNELS 3 Zrotation Yrotation Xrotation
		JOINT Spine
		{
			OFFSET -0.00200 1.66634 -0.14248
			CHANNELS 3 Zrotation Yrotation Xrotation
			JOINT Spine1
			{
				OFFSET -0.00875 1.64542 0.09514
				CHANNELS 3 Zrotation Yrotation Xrotation
				JOINT Neck
				{
					OFFSET 0 0 0
					CHANNELS 3 Zrotation Yrotation Xrotation
					JOINT Neck1
					{
						OFFSET 0.02257 1.59605 0.00839
						CHANNELS 3 Zrotation Yrotation Xrotation
						JOINT Head
						{
							OFFSET -0.10214 1.57530 -0.23335
							CHANNELS 3 Zrotation Yrotation Xrotation
							End Site
							{
								OFFSET -0.03588 1.60717 -0.08062
							}
						}
					}
				}
				JOINT LeftShoulder
				{
					OFFSET 0 0 0
					CHANNELS 3 Zrotation Yrotation Xrotation
					JOINT LeftArm
					{
						OFFSET 2.54983 1.10186 0.40078
						CHANNELS 3 Zrotation Yrotation Xrotation
						JOINT LeftForeArm
						{
							OFFSET 4.28840 -0.00000 0.00000
							CHANNELS 3 Zrotation Yrotation Xrotation
							JOINT LeftHand
							{
								OFFSET 3.06552 -0.00000 -0.00000
								CHANNELS 3 Zrotation Yrotation Xrotation
								JOINT LeftFingerBase
								{
									OFFSET 0 0 0
									CHANNELS 3 Zrotation Yrotation Xrotation
									JOINT LeftHandIndex1
									{
										OFFSET 0.75304 -0.00000 0.00000
										CHANNELS 3 Zrotation Yrotation Xrotation
										End Site
										{
											OFFSET 0.60712 -0.00000 0.00000
										}
									}
								}
								JOINT LThumb
								{
									OFFSET 0 0 0
									CHANNELS 3 Zrotation Yrotation Xrotation
									End Site
									{
										OFFSET 0.61639 -0.00000 0.61639
									}
								}
							}
						}
					}
				}
				JOINT RightShoulder
				{
					OFFSET 0 0 0
					CHANNELS 3 Zrotation Yrotation Xrotation
					JOINT RightArm
					{
						OFFSET -2.60909 1.35448 0.21802
						CHANNELS 3 Zrotation Yrotation Xrotation
						JOINT RightForeArm
						{
							OFFSET -4.52172 -0.00000 -0.00000
							CHANNELS 3 Zrotation Yrotation Xrotation
							JOINT RightHand
							{
								OFFSET -2.89140 -0.00000 0.00000
								CHANNELS 3 Zrotation Yrotation Xrotation
								JOINT RightFingerBase
								{
									OFFSET 0 0 0
									CHANNELS 3 Zrotation Yrotation Xrotation
									JOINT RightHandIndex1
									{
										OFFSET -0.68054 -0.00000 0.00000
										CHANNELS 3 Zrotation Yrotation Xrotation
										End Site
										{
											OFFSET -0.54867 -0.00000 0.00000
										}
									}
								}
								JOINT RThumb
								{
									OFFSET 0 0 0
									CHANNELS 3 Zrotation Yrotation Xrotation
									End Site
									{
										OFFSET -0.55705 -0.00000 0.55705
									}
								}
							}
						}
					}
				}
			}
		}
	}
}
MOTION
Frames: 8
Frame Time: .0083333
7.5628 15.1722 41.5609 0 0 0 0 0 0 -21 0 0 0 0 0 0 0 0 0 0 0 0 0 0 21 0 0 0 0 0 0 0 0 0 0 0 0 0 0 0 0 0 0 0 0 0 0 -16 0 0 21 0 0 11 0 0 0 -8 0 0 0 0 0 0 0 0 0 0 0 0 0 0 0 0 0 0 0 0 8 0 0 0 0 0 0 0 0 0 0 0 0 0 0 0 0 0
7.5628 15.1722 41.5609 -178.5420 1.9668 179.6810 0.0000 0.0000 0.0000 -27.7437 -21.6831 0.6932 2.3889 9.6330 27.7963 1.8122 11.9276 -32.1020 2.5527 -9.9332 -28.7606 0.0000 0.0000 0.0000 24.3827 19.6980 3.1070 -1.9723 -8.8081 25.1970 0.4820 -23.5105 -29.9172 -0.3427 3.7618 -10.4074 1.3586 2.2015 5.4237 0.3392 3.2684 -5.0217 -0.8198 1.5966 -8.2697 -8.0536 -2.6689 -6.6321 8.7468 -4.6825 15.8238 3.7526 -2.3687 6.2527 0.0000 0.0000 0.0000 -86.0332 15.9486 36.0559 22.2769 -33.2886 -6.7372 -0.0000 -0.0000 10.8084 6.6568 -33.0764 -3.6445 -7.1250 0.0000 -0.0000 -14.1733 -2.3888 15.2173 0.0000 0.0000 0.0000 84.2532 -14.6209 37.3318 -19.7689 30.3629 -5.4141 0.0000 0.0000 12.4271 4.1150 -57.4738 -3.4713 7.1250 -0.0000 -0.0000 87.1298 -70.7811 -66.5886
7.5440 15.1723 41.5493 -178.8290 2.2548 179.8650 0.0000 0.0000 0.0000 -28.0671 -21.5219 0.6196 2.3430 9.5467 27.5210 1.8332 11.7883 -32.1242 2.5963 -10.0110 -29.0124 0.0000 0.0000 0.0000 23.7866 19.6408 2.5305 -2.0485 -8.9663 25.6899 0.4190 -23.1130 -29.7493 -0.4125 4.1226 -11.4220 1.0419 2.2870 5.1888 0.2566 3.3520 -5.0853 -0.7312 1.6573 -8.2117 -8.1440 -2.6623 -6.5879 8.8619 -4.6932 15.8458 3.8049 -2.3750 6.2569 0.0000 -0.0000 0.0000 -86.1618 15.6804 35.5278 21.9899 -32.9656 -6.5803 -0.0000 -0.0000 10.7859 7.4906 -33.4842 -4.1491 -7.1250 0.0000 -0.0000 -13.7389 -2.8848 14.8375 0.0000 -0.0000 0.0000 84.1546 -14.8055 37.7549 -19.7617 30.3541 -5.4104 0.0000 0.0000 10.5763 -0.3328 -56.8711 0.2787 7.1250 -0.0000 -0.0000 84.0831 -72.2353 -65.2167
7.5189 15.1673 41.5425 -179.0950 2.3171 179.9550 0.0000 0.0000 0.0000 -28.3424 -21.2784 0.3881 2.3469 9.5541 27.5445 1.9462 11.0525 -32.2642 2.5875 -9.9952 -28.9612 0.0000 0.0000 0.0000 23.2746 19.5394 2.1980 -2.0872 -9.0455 25.9377 0.4289 -23.0026 -29.5066 -0.4911 4.4931 -12.4682 0.8259 2.3121 5.1767 0.1613 3.3654 -5.1612 -0.7147 1.6745 -8.2927 -8.1249 -2.6663 -6.5439 8.9050 -4.7221 15.8777 3.8138 -2.3892 6.2621 -0.0000 -0.0000 0.0000 -86.0357 15.7310 35.5995 21.9959 -32.9724 -6.5836 -0.0000 -0.0000 10.8070 8.1721 -33.8967 -4.5789 -7.1250 0.0000 -0.0000 -13.3923 -3.3715 14.5505 -0.0000 -0.0000 0.0000 84.1424 -14.9241 37.4851 -19.7730 30.3679 -5.4161 0.0000 0.0000 10.3616 -0.6430 -57.4479 0.5420 7.1250 -0.0000 -0.0000 85.8103 -72.3899 -67.1550
7.4908 15.1622 41.5310 -178.8970 2.4630 179.9410 0.0000 0.0000 0.0000 -28.2343 -21.1517 0.4883 2.3216 9.5060 27.3915 2.0173 10.7803 -32.4951 2.5622 -9.9502 -28.8155 0.0000 0.0000 0.0000 23.2903 19.4078 1.8459 -2.1635 -9.1986 26.4187 0.3698 -22.6685 -29.4214 -0.5234 4.6364 -12.8743 1.1335 2.3316 5.1930 0.2101 3.4242 -5.1629 -0.8427 1.6868 -8.2891 -8.1642 -2.6951 -6.6203 8.9365 -4.7685 15.9665 3.8266 -2.4116 6.3093 -0.0000 0.0000 0.0000 -85.9890 15.7317 35.5462 21.8972 -32.8607 -6.5300 -0.0000 -0.0000 11.2740 9.0402 -33.6334 -5.0361 -7.1250 0.0000 -0.0000 -12.8995 -3.2305 13.9563 -0.0000 0.0000 0.0000 84.0676 -14.9322 37.1537 -19.7519 30.3422 -5.4054 0.0000 0.0000 10.6162 1.1152 -58.0046 -0.9458 7.1250 -0.0000 -0.0000 87.9180 -71.8255 -68.6583
7.4604 15.1625 41.5157 -178.6800 2.7941 179.8120 0.0000 0.0000 0.0000 -28.2661 -21.1687 0.8972 2.2898 9.4453 27.1983 2.0530 10.6389 -32.6077 2.1709 -9.2133 -26.4648 0.0000 0.0000 0.0000 23.2543 19.0318 1.4172 -2.2562 -9.3806 26.9933 0.2275 -21.8195 -29.1836 -0.4703 4.3984 -12.2004 1.4889 2.3792 5.2487 0.3046 3.5223 -5.0958 -0.9534 1.7158 -8.2329 -8.3661 -2.7142 -6.6843 9.0278 -4.7851 16.0219 3.8888 -2.4237 6.3461 0.0000 0.0000 0.0000 -86.1116 15.9096 35.1545 22.0637 -33.0489 -6.6205 -0.0000 -0.0000 11.3474 8.9363 -33.2348 -4.9257 -7.1250 0.0000 -0.0000 -12.9288 -2.8288 13.9029 0.0000 0.0000 0.0000 83.8494 -14.9695 37.0831 -19.7669 30.3605 -5.4130 0.0000 0.0000 10.5535 1.1034 -58.3789 -0.9396 7.1250 -0.0000 -0.0000 89.0538 -71.8432 -69.8630
7.4407 15.1705 41.5236 -179.1920 2.9115 180.0810 0.0000 0.0000 0.0000 -28.6793 -20.8983 0.5802 2.2397 9.3485 26.8918 2.1048 10.1467 -32.5789 2.0503 -8.9702 -25.7021 0.0000 0.0000 0.0000 22.2275 18.4705 0.2335 -2.3769 -9.6107 27.7249 0.1018 -20.8894 -28.7590 -0.4455 4.2822 -11.8720 0.8982 2.3535 5.3093 0.2338 3.4406 -5.2356 -0.6973 1.7090 -8.4510 -8.5371 -2.6834 -6.6434 9.0627 -4.7159 15.9394 3.9347 -2.3960 6.3111 -0.0000 -0.0000 0.0000 -86.3440 15.6473 34.4868 21.8727 -32.8329 -6.5167 -0.0000 -0.0000 10.9054 7.6381 -33.2750 -4.2081 -7.1250 0.0000 -0.0000 -13.6455 -2.7005 14.6883 -0.0000 -0.0000 0.0000 83.5919 -15.0427 37.1210 -19.8143 30.4180 -5.4370 0.0000 0.0000 10.1797 -2.8803 -57.6295 2.4333 7.1250 -0.0000 -0.0000 85.9605 -73.1660 -68.2179
7.4271 15.1736 41.5170 -179.4480 2.8750 180.1530 0.0000 0.0000 0.0000 -28.9299 -20.7795 0.6324 2.1932 9.2575 26.6041 2.1232 9.8768 -32.5079 2.3072 -9.4785 -27.3040 0.0000 0.0000 0.0000 21.6857 17.9237 -0.5901 -2.5087 -9.8536 28.5040 0.0405 -20.3474 -28.4487 -0.5178 4.6121 -12.8055 0.5490 2.2984 5.3216 0.1643 3.3299 -5.2608 -0.5637 1.6733 -8.5023 -8.5189 -2.6644 -6.5656 9.1130 -4.6817 15.7457 3.9503 -2.3731 6.2339 -0.0000 -0.0000 0.0000 -86.2835 15.7609 34.1442 21.9637 -32.9360 -6.5661 -0.0000 -0.0000 11.2743 8.5153 -33.4996 -4.7241 -7.1250 0.0000 -0.0000 -13.1781 -3.0307 14.2301 -0.0000 -0.0000 0.0000 83.5633 -15.0417 36.8233 -19.7542 30.3451 -5.4066 0.0000 0.0000 10.0063 -5.7063 -57.0282 4.7919 7.1250 -0.0000 -0.0000 83.4574 -74.1152 -66.7864
